<svg width="116" height="102" viewBox="0 0 116 102" fill="none" xmlns="http://www.w3.org/2000/svg">
<g clip-path="url(#clip0_215_4159)">
<path fill-rule="evenodd" clip-rule="evenodd" d="M78.6027 63.1168L113.188 77.722L77.0331 67.6409L81.5915 70.9277C79.6742 70.5691 77.7229 70.2463 75.7376 69.9594C63.7906 68.2877 51.6693 68.2877 39.7223 69.9594C37.7979 70.232 35.9004 70.5476 34.0297 70.9062L38.4591 67.7055L2.31477 77.8564L36.868 63.1814L-0.630961 65.0319L36.3197 58.4206L-0.64171 51.8953L36.8465 53.6759L2.26639 39.06L38.4215 49.1464L7.95896 27.2038L40.9694 45.0796L16.1457 16.9022L44.3452 41.6852L26.4128 8.68777L48.3982 39.1192L38.2548 2.96406L52.919 37.5269L51.0752 0L57.6816 36.9674L64.2235 0L62.4442 37.5054L77.0492 2.91027L66.9703 39.0815L88.9074 8.60708L71.0287 41.626L99.196 16.7946L74.426 45.0097L107.41 27.0639L76.9901 49.0604L113.129 38.9148L78.5812 53.5791L116.075 51.7339L79.1295 58.3399L116.096 64.8866L78.6027 63.1061V63.1168Z" fill="white"/>
<path fill-rule="evenodd" clip-rule="evenodd" d="M78.6027 63.1168L113.188 77.722L77.0331 67.6409L81.5915 70.9277C79.6742 70.5691 77.7229 70.2463 75.7376 69.9594C63.7906 68.2877 51.6693 68.2877 39.7223 69.9594C37.7979 70.232 35.9004 70.5476 34.0297 70.9062L38.4591 67.7055L2.31477 77.8564L36.868 63.1814L-0.630961 65.0319L36.3197 58.4206L-0.64171 51.8953L36.8465 53.6759L2.26639 39.06L38.4215 49.1464L7.95896 27.2038L40.9694 45.0796L16.1457 16.9022L44.3452 41.6852L26.4128 8.68777L48.3982 39.1192L38.2548 2.96406L52.919 37.5269L51.0752 0L57.6816 36.9674L64.2235 0L62.4442 37.5054L77.0492 2.91027L66.9703 39.0815L88.9074 8.60708L71.0287 41.626L99.196 16.7946L74.426 45.0097L107.41 27.0639L76.9901 49.0604L113.129 38.9148L78.5812 53.5791L116.075 51.7339L79.1295 58.3399L116.096 64.8866L78.6027 63.1061V63.1168Z" fill="#FFCB04"/>
<path fill-rule="evenodd" clip-rule="evenodd" d="M79.1295 58.3453V58.3937C79.1265 59.9814 78.9462 61.5638 78.592 63.1114C78.2409 64.6739 77.7144 66.1916 77.0223 67.6355V67.6355C76.6404 68.4353 76.2077 69.2097 75.7269 69.9541C63.7799 68.2824 51.6586 68.2824 39.7116 69.9541C39.246 69.2276 38.8225 68.475 38.443 67.7001C37.7457 66.2567 37.2138 64.739 36.8572 63.176C36.5027 61.6138 36.3224 60.0171 36.3197 58.4152V58.3668C36.3254 56.7792 36.5056 55.1971 36.8572 53.649V53.649C37.2042 52.0854 37.7309 50.5673 38.4268 49.1249C40.5277 44.7525 44.0435 41.2189 48.4036 39.0977C49.8445 38.39 51.3612 37.8485 52.9243 37.4839V37.4839C54.4867 37.1262 56.0843 36.9457 57.687 36.9459H57.73C59.3183 36.9489 60.9013 37.1294 62.4496 37.4839C64.0116 37.8385 65.5296 38.3653 66.9757 39.0546V39.0546C69.8713 40.4451 72.419 42.4671 74.4314 44.972C76.4461 47.4773 77.8668 50.4073 78.5866 53.5414V53.5414C78.9434 55.1032 79.1237 56.7002 79.1241 58.3022" fill="#DF1F26"/>
<path fill-rule="evenodd" clip-rule="evenodd" d="M66.3629 45.1495C67.8523 45.8654 69.1505 46.9253 70.1503 48.2417C71.1502 49.5582 71.8232 51.0936 72.1138 52.7214C72.4044 54.3492 72.3043 56.0228 71.8218 57.6043C71.3393 59.1858 70.4882 60.6299 69.3386 61.8176C68.189 63.0054 66.7738 63.9028 65.2096 64.4358C63.6455 64.9688 61.9772 65.1223 60.3422 64.8835C58.7072 64.6448 57.1522 64.0206 55.8055 63.0625C54.4589 62.1044 53.3589 60.8397 52.5964 59.3727C54.5633 60.5467 56.8686 61.0215 59.1389 60.7204C61.4091 60.4192 63.5113 59.3597 65.1046 57.7135C66.6979 56.0673 67.6891 53.9309 67.9175 51.6506C68.1458 49.3702 67.5981 47.0794 66.3629 45.1495" fill="#FFCB04"/>
<path fill-rule="evenodd" clip-rule="evenodd" d="M110.479 83.1444L110.393 83.2897C105.426 82.3034 100.373 81.4571 95.2343 80.7506C93.4765 80.5085 91.7134 80.2879 89.9449 80.0781C87.0099 79.7195 84.0534 79.4218 81.0754 79.1852C79.151 79.0238 77.2105 78.8785 75.2699 78.7602L73.023 78.6257C71.2097 78.5289 69.3928 78.45 67.5724 78.389H67.2498L65.5619 78.3406C62.971 78.2653 60.3657 78.2276 57.7461 78.2276C55.1265 78.2276 52.5068 78.2653 49.8872 78.3406L48.2746 78.389H47.9736C46.1459 78.4482 44.3344 78.5342 42.5229 78.6311C41.7865 78.6687 41.0554 78.7118 40.3244 78.7602C38.3785 78.8785 36.4397 79.0184 34.5081 79.1798C31.5893 79.4272 28.6812 79.7177 25.8054 80.0512C24.0135 80.2557 22.2343 80.4816 20.4676 80.7291C15.2534 81.4463 10.1235 82.3016 5.07774 83.295L4.98636 83.1498C11.198 81.1348 17.5234 79.4894 23.9293 78.2222C26.4701 77.7166 29.0396 77.2683 31.6377 76.8774C33.4761 76.5977 35.3252 76.3484 37.1851 76.1296C39.4643 75.8607 41.7578 75.6365 44.0657 75.4572H44.2484L44.7107 75.4196C49.011 75.104 53.349 74.9426 57.7246 74.9354C62.1002 74.9282 66.4256 75.0896 70.7008 75.4196L71.2706 75.4572H71.491C73.8025 75.6365 76.096 75.8625 78.3716 76.135C80.2852 76.361 82.1899 76.6192 84.0856 76.9097C86.6658 77.3041 89.2245 77.756 91.7617 78.2653C98.0833 79.5234 104.326 81.1508 110.457 83.139" fill="#FFCB04"/>
<path fill-rule="evenodd" clip-rule="evenodd" d="M89.117 85.9901L87.7248 85.9955L85.2198 84.4355H87.4291L89.117 85.9901Z" fill="white"/>
<path fill-rule="evenodd" clip-rule="evenodd" d="M36.1584 85.931H33.8953L33.3524 85.6082L33.0407 85.4253L32.2021 85.931H29.9337L32.2827 84.4247H33.8147L34.32 84.7529L36.1584 85.931Z" fill="white"/>
<path fill-rule="evenodd" clip-rule="evenodd" d="M92.4874 86.7648C92.4874 87.0212 92.4114 87.2718 92.2691 87.485C92.1267 87.6982 91.9244 87.8644 91.6877 87.9625C91.451 88.0607 91.1905 88.0863 90.9392 88.0363C90.6879 87.9863 90.4571 87.8628 90.2759 87.6815C90.0947 87.5002 89.9714 87.2692 89.9214 87.0177C89.8714 86.7662 89.897 86.5055 89.9951 86.2686C90.0931 86.0318 90.2592 85.8293 90.4722 85.6868C90.6853 85.5444 90.9357 85.4683 91.1919 85.4683C91.3623 85.4676 91.531 85.5007 91.6885 85.5656C91.846 85.6305 91.9891 85.7259 92.1096 85.8465C92.23 85.967 92.3254 86.1102 92.3903 86.2678C92.4551 86.4254 92.4881 86.5943 92.4874 86.7648" fill="white"/>
<path fill-rule="evenodd" clip-rule="evenodd" d="M110.855 81.8749L110.748 82.0578C103.866 79.8596 96.8513 78.1041 89.7459 76.8021C87.0152 76.2964 84.2541 75.8571 81.4624 75.4841C80.1025 75.3012 78.7425 75.1291 77.3771 74.9838C75.5495 74.7794 73.7111 74.6073 71.8673 74.4459C67.2086 74.0872 62.5015 73.9079 57.7461 73.9079C52.9906 73.9079 48.271 74.0872 43.5872 74.4459C41.7865 74.5857 40.0018 74.7579 38.2118 74.9515C36.8895 75.095 35.5743 75.2564 34.2663 75.4357C31.4675 75.7943 28.6973 76.2301 25.9559 76.7429C18.7735 78.0503 11.6829 79.8203 4.72834 82.0416L4.62083 81.8587C13.0911 77.9537 21.9658 74.9951 31.084 73.0365C34.2519 72.3587 37.4575 71.801 40.7006 71.3635C51.9939 69.8465 63.4391 69.8465 74.7324 71.3635C78.0616 71.8082 81.3495 72.3838 84.5963 73.0903C93.6398 75.046 102.442 77.9882 110.844 81.8641" fill="#218341"/>
<path fill-rule="evenodd" clip-rule="evenodd" d="M79.9089 99.471C79.734 98.8708 79.6365 98.2508 79.6187 97.6258C79.6216 96.4714 79.1986 95.3565 78.4307 94.495C78.2321 94.3205 78.0094 94.1756 77.7695 94.0647C77.9233 93.9847 78.0707 93.893 78.2103 93.7903C78.9182 93.2813 79.4093 92.5249 79.5864 91.6708C79.6928 91.2361 79.7434 90.7896 79.7369 90.3421C79.7378 89.7575 79.6074 89.1803 79.3553 88.653C79.074 88.0653 78.6323 87.5692 78.0813 87.222C77.7201 87.0043 77.3262 86.8463 76.9148 86.754C76.0125 86.5602 75.0907 86.4718 74.168 86.4904H67.6476V99.8691H70.9642V95.0276H72.8564C73.2831 95.0197 73.7097 95.0521 74.1304 95.1244C74.412 95.1656 74.6818 95.2654 74.9226 95.4173C75.1633 95.5693 75.3695 95.77 75.528 96.0066C75.662 96.2199 75.7635 96.452 75.829 96.6952C75.9247 97.058 75.9859 97.429 76.0118 97.8034C76.0556 98.4366 76.1545 99.0648 76.3074 99.6808L76.3719 99.8852H80.0648L79.9089 99.471ZM75.6516 91.9398C75.2838 92.1169 74.8761 92.1947 74.469 92.1657H70.9481V89.3899H74.469C74.6195 89.3899 74.8292 89.3899 75.0066 89.3899C75.14 89.3987 75.2718 89.424 75.399 89.4652C75.6383 89.5566 75.8394 89.7268 75.9693 89.9477C76.0993 90.1687 76.1502 90.4272 76.1139 90.681C76.1192 90.758 76.1192 90.8353 76.1139 90.9123C76.1153 91.1047 76.0735 91.295 75.9916 91.4691C75.9098 91.6432 75.7899 91.7967 75.6408 91.9183L75.6516 91.9398ZM55.2143 86.4958V89.3684H59.2942V99.8744H62.6055V89.363H66.8305V86.4904L55.2143 86.4958ZM93.154 89.8741C92.9632 89.3566 92.6929 88.872 92.353 88.4378L92.3208 88.3947C92.0244 88.6015 91.6772 88.7233 91.3167 88.747C90.9562 88.7708 90.5961 88.6955 90.2752 88.5294C89.9543 88.3633 89.6849 88.1127 89.4959 87.8045C89.307 87.4964 89.2057 87.1424 89.203 86.7809C89.2004 86.7361 89.2004 86.6912 89.203 86.6464C88.5358 86.4996 87.8543 86.4275 87.1711 86.4312C86.9991 86.4312 86.8217 86.4312 86.6336 86.4312C85.6638 86.4478 84.704 86.6297 83.7954 86.9692C83.2875 87.172 82.8156 87.4553 82.3978 87.8084C80.8496 89.1317 80.4787 91.3104 80.4787 93.2416C80.4762 93.2756 80.4762 93.3098 80.4787 93.3438C80.4667 94.3112 80.6194 95.2735 80.9303 96.1895C81.3367 97.4471 82.221 98.4943 83.3922 99.1052L83.6825 99.2451C84.8187 99.7288 86.0441 99.9671 87.2786 99.9444C88.5053 99.9848 89.7233 99.7245 90.8264 99.1859C91.7764 98.6706 92.5316 97.8581 92.9766 96.8727C93.1861 96.4257 93.3447 95.9565 93.4496 95.4741C93.5286 95.1195 93.5843 94.7601 93.6162 94.3982C93.6531 94.0408 93.6711 93.6816 93.67 93.3223C93.6997 92.1534 93.5176 90.9888 93.1325 89.8848L93.154 89.8741ZM90.1222 93.1286C90.1728 94.1048 89.9885 95.0789 89.5847 95.969C89.3349 96.3833 88.9734 96.7187 88.5417 96.9366C88.11 97.1545 87.6256 97.2461 87.1442 97.2009C86.7155 97.239 86.2838 97.1757 85.8841 97.0159C85.4845 96.856 85.128 96.6043 84.8436 96.281C84.2146 95.4579 84.0964 94.1561 84.0964 93.1555C84.0964 92.2733 84.177 91.0038 84.6877 90.256C84.8786 89.9718 85.1279 89.7317 85.419 89.5517C85.7101 89.3718 86.0362 89.2561 86.3756 89.2124C86.6139 89.1756 86.8547 89.1576 87.0959 89.1586C88.0688 89.1586 88.9988 89.4115 89.5256 90.2775C89.8936 90.9594 90.0944 91.7191 90.1115 92.4939C90.1115 92.709 90.1115 92.9242 90.1115 93.1286H90.1222ZM95.0354 99.8691H98.3466V86.4904H95.0354V99.8691Z" fill="white"/>
<path fill-rule="evenodd" clip-rule="evenodd" d="M23.5746 96.9964C22.9942 97.0101 22.4136 96.9777 21.8383 96.8996C21.5179 96.8618 21.2144 96.7351 20.9621 96.5338C20.7838 96.3777 20.6564 96.1715 20.5966 95.9421C20.5748 95.8736 20.5586 95.8034 20.5482 95.7323C20.4632 95.1463 20.4236 94.5546 20.4299 93.9624V86.4904H17.1187V93.9624C17.0849 94.8901 17.1625 95.8184 17.3498 96.7275C17.5202 97.399 17.8567 98.0169 18.3281 98.5242L18.5109 98.6963C19.0049 99.1411 19.5986 99.4603 20.2418 99.627C21.2459 99.8316 22.2712 99.9129 23.295 99.869H26.4827V96.9964H23.5746ZM39.4213 90.9607C39.3401 90.5947 39.2323 90.2351 39.0988 89.8848C38.8509 89.2028 38.4585 88.5825 37.9484 88.0666C37.5425 87.6637 37.0672 87.3375 36.5454 87.1037C35.4638 86.635 34.2944 86.4039 33.1159 86.4259H32.4225C30.9541 86.4348 29.5282 86.9199 28.3587 87.8084C27.2995 88.8044 26.6513 90.1612 26.5418 91.6116C26.4715 92.1467 26.4374 92.6858 26.4396 93.2255C26.4232 94.2274 26.5796 95.2246 26.9019 96.1734C27.3029 97.4323 28.1863 98.4808 29.3585 99.089C29.9314 99.3748 30.5383 99.5863 31.1646 99.7184C31.3646 99.2827 31.7162 98.9347 32.1537 98.7394C32.4076 98.6201 32.685 98.5594 32.9654 98.5619C33.2556 98.5596 33.5425 98.624 33.804 98.7501C34.2648 98.966 34.6249 99.3514 34.8092 99.826C35.5037 99.7275 36.1764 99.511 36.7981 99.1859C37.7496 98.6725 38.5053 97.8595 38.9482 96.8727C39.4396 95.7495 39.6781 94.5319 39.6471 93.3061C39.6499 92.518 39.5688 91.7317 39.4052 90.9607H39.4213ZM33.0622 97.2009H32.9815C32.569 97.2292 32.1556 97.1619 31.7734 97.0042C31.3911 96.8465 31.0504 96.6027 30.7776 96.2917C30.1541 95.4687 30.0358 94.14 30.0358 93.1663C30.0358 92.2841 30.1164 91.0145 30.6217 90.2614C30.8969 89.8901 31.2631 89.596 31.6849 89.4075C32.1067 89.2191 32.57 89.1426 33.0299 89.1855C34.0029 89.1855 34.9328 89.4383 35.465 90.3044C35.721 90.7506 35.8889 91.2419 35.9595 91.7515C36.0344 92.2157 36.0703 92.6853 36.067 93.1555C36.12 94.1319 35.9355 95.1065 35.5295 95.9959C34.9919 96.9265 34.1157 97.2278 33.089 97.2278L33.0622 97.2009ZM45.4525 89.632C45.9409 89.4603 46.4562 89.3783 46.9737 89.3899H51.2741V86.5173H46.3018C45.3549 86.5162 44.4148 86.6782 43.5227 86.9961C42.6008 87.3611 41.827 88.0237 41.3242 88.8789C40.5798 90.2067 40.217 91.7148 40.276 93.2362C40.2392 94.5096 40.4718 95.7763 40.9587 96.9534C41.3369 97.8421 41.9786 98.5932 42.7971 99.1052C43.3249 99.4236 43.9057 99.6441 44.5118 99.7561H44.6032C45.2366 99.8494 45.8768 99.889 46.5168 99.8744H51.2741V97.0018H47.0598C46.6408 97.0069 46.2225 96.9654 45.8127 96.8781C45.4675 96.8102 45.1422 96.6649 44.8612 96.4531C44.3875 95.9869 44.0894 95.3712 44.0173 94.7102C43.9169 94.1312 43.8702 93.5441 43.8775 92.9565C43.8775 92.1603 43.9474 90.88 44.5011 90.2668C44.7566 89.9835 45.0778 89.7673 45.4364 89.6374" fill="white"/>
<path fill-rule="evenodd" clip-rule="evenodd" d="M34.3146 100.595C34.3146 100.769 34.2804 100.941 34.2139 101.101C34.1474 101.261 34.0499 101.407 33.927 101.529C33.8041 101.652 33.6583 101.749 33.4979 101.814C33.3375 101.88 33.1657 101.914 32.9923 101.913C32.6434 101.912 32.3093 101.773 32.0626 101.526C31.8159 101.279 31.6767 100.944 31.6753 100.595C31.6755 100.415 31.7128 100.236 31.7849 100.07C31.8571 99.9046 31.9625 99.7555 32.0946 99.6324C32.3369 99.4027 32.6585 99.2755 32.9923 99.2773C33.1384 99.2778 33.2835 99.3014 33.4223 99.3472C33.6826 99.436 33.9087 99.6041 34.0687 99.8279C34.2287 100.052 34.3147 100.32 34.3146 100.595" fill="white"/>
</g>
<defs>
<clipPath id="clip0_215_4159">
<rect width="115.455" height="101.818" fill="white"/>
</clipPath>
</defs>
</svg>
