<svg width="160" height="160" viewBox="0 0 160 160" fill="none" xmlns="http://www.w3.org/2000/svg">
<mask id="mask0_215_4155" style="mask-type:alpha" maskUnits="userSpaceOnUse" x="0" y="0" width="160" height="160">
<circle cx="80" cy="80" r="80" fill="#C4C4C4"/>
</mask>
<g mask="url(#mask0_215_4155)">
<rect y="-2.46695" width="160" height="164.053" fill="url(#paint0_linear_215_4155)"/>
</g>
<g clip-path="url(#clip0_215_4155)">
<path fill-rule="evenodd" clip-rule="evenodd" d="M100.603 85.1168L135.188 99.722L99.0331 89.6409L103.591 92.9277C101.674 92.5691 99.7229 92.2463 97.7376 91.9594C85.7906 90.2877 73.6693 90.2877 61.7223 91.9594C59.7979 92.232 57.9004 92.5476 56.0297 92.9062L60.4591 89.7055L24.3148 99.8564L58.868 85.1814L21.369 87.0319L58.3197 80.4206L21.3583 73.8953L58.8465 75.6759L24.2664 61.06L60.4215 71.1464L29.959 49.2038L62.9694 67.0796L38.1457 38.9022L66.3452 63.6852L48.4128 30.6878L70.3982 61.1192L60.2548 24.9641L74.919 59.5269L73.0752 22L79.6816 58.9674L86.2235 22L84.4442 59.5054L99.0492 24.9103L88.9703 61.0815L110.907 30.6071L93.0287 63.626L121.196 38.7946L96.426 67.0097L129.41 49.0639L98.9901 71.0604L135.129 60.9148L100.581 75.5791L138.075 73.7339L101.13 80.3399L138.096 86.8866L100.603 85.1061V85.1168Z" fill="white"/>
<path fill-rule="evenodd" clip-rule="evenodd" d="M100.603 85.1168L135.188 99.722L99.0331 89.6409L103.591 92.9277C101.674 92.5691 99.7229 92.2463 97.7376 91.9594C85.7906 90.2877 73.6693 90.2877 61.7223 91.9594C59.7979 92.232 57.9004 92.5476 56.0297 92.9062L60.4591 89.7055L24.3148 99.8564L58.868 85.1814L21.369 87.0319L58.3197 80.4206L21.3583 73.8953L58.8465 75.6759L24.2664 61.06L60.4215 71.1464L29.959 49.2038L62.9694 67.0796L38.1457 38.9022L66.3452 63.6852L48.4128 30.6878L70.3982 61.1192L60.2548 24.9641L74.919 59.5269L73.0752 22L79.6816 58.9674L86.2235 22L84.4442 59.5054L99.0492 24.9103L88.9703 61.0815L110.907 30.6071L93.0287 63.626L121.196 38.7946L96.426 67.0097L129.41 49.0639L98.9901 71.0604L135.129 60.9148L100.581 75.5791L138.075 73.7339L101.13 80.3399L138.096 86.8866L100.603 85.1061V85.1168Z" fill="#FFCB04"/>
<path fill-rule="evenodd" clip-rule="evenodd" d="M101.129 80.3453V80.3937C101.126 81.9814 100.946 83.5638 100.592 85.1114C100.241 86.6739 99.7144 88.1916 99.0223 89.6355C98.6404 90.4353 98.2077 91.2097 97.7269 91.9541C85.7799 90.2824 73.6586 90.2824 61.7116 91.9541C61.246 91.2276 60.8225 90.475 60.443 89.7001C59.7457 88.2567 59.2138 86.739 58.8572 85.176C58.5027 83.6138 58.3224 82.0171 58.3197 80.4152V80.3668C58.3254 78.7792 58.5056 77.1971 58.8572 75.649C59.2042 74.0854 59.7309 72.5673 60.4268 71.1249C62.5277 66.7525 66.0435 63.2189 70.4036 61.0977C71.8445 60.39 73.3612 59.8485 74.9243 59.4839C76.4867 59.1262 78.0843 58.9457 79.687 58.9459H79.73C81.3183 58.9489 82.9013 59.1294 84.4496 59.4839C86.0116 59.8385 87.5296 60.3653 88.9757 61.0546C91.8713 62.4451 94.419 64.4671 96.4314 66.972C98.4461 69.4773 99.8668 72.4073 100.587 75.5414C100.943 77.1032 101.124 78.7002 101.124 80.3022" fill="#DF1F26"/>
<path fill-rule="evenodd" clip-rule="evenodd" d="M88.3629 67.1495C89.8523 67.8654 91.1505 68.9253 92.1503 70.2417C93.1502 71.5582 93.8232 73.0936 94.1138 74.7214C94.4044 76.3492 94.3043 78.0228 93.8218 79.6043C93.3393 81.1858 92.4882 82.6299 91.3386 83.8176C90.189 85.0054 88.7738 85.9028 87.2096 86.4358C85.6455 86.9688 83.9772 87.1223 82.3422 86.8835C80.7072 86.6448 79.1522 86.0206 77.8055 85.0625C76.4589 84.1044 75.3589 82.8397 74.5964 81.3727C76.5633 82.5467 78.8686 83.0215 81.1389 82.7204C83.4091 82.4192 85.5113 81.3597 87.1046 79.7135C88.6979 78.0673 89.6891 75.9309 89.9175 73.6506C90.1458 71.3702 89.5981 69.0794 88.3629 67.1495Z" fill="#FFCB04"/>
<path fill-rule="evenodd" clip-rule="evenodd" d="M132.479 105.144L132.393 105.29C127.426 104.303 122.373 103.457 117.234 102.751C115.477 102.508 113.713 102.288 111.945 102.078C109.01 101.72 106.053 101.422 103.075 101.185C101.151 101.024 99.2105 100.879 97.27 100.76L95.023 100.626C93.2097 100.529 91.3928 100.45 89.5723 100.389H89.2498L87.5619 100.341C84.971 100.265 82.3657 100.228 79.7461 100.228C77.1265 100.228 74.5068 100.265 71.8872 100.341L70.2746 100.389H69.9736C68.1459 100.448 66.3344 100.534 64.5229 100.631C63.7865 100.669 63.0554 100.712 62.3244 100.76C60.3785 100.879 58.4397 101.018 56.5082 101.18C53.5893 101.427 50.6812 101.718 47.8054 102.051C46.0135 102.256 44.2343 102.482 42.4676 102.729C37.2534 103.446 32.1235 104.302 27.0777 105.295L26.9864 105.15C33.198 103.135 39.5234 101.489 45.9293 100.222C48.4701 99.7166 51.0396 99.2683 53.6377 98.8774C55.4761 98.5977 57.3252 98.3484 59.1851 98.1296C61.4643 97.8607 63.7578 97.6365 66.0657 97.4572H66.2484L66.7107 97.4196C71.011 97.104 75.349 96.9426 79.7246 96.9354C84.1002 96.9282 88.4256 97.0896 92.7008 97.4196L93.2706 97.4572H93.491C95.8025 97.6365 98.096 97.8625 100.372 98.135C102.285 98.361 104.19 98.6192 106.086 98.9097C108.666 99.3041 111.225 99.756 113.762 100.265C120.083 101.523 126.326 103.151 132.457 105.139" fill="#FFCB04"/>
<path fill-rule="evenodd" clip-rule="evenodd" d="M111.117 107.99L109.725 107.996L107.22 106.435H109.429L111.117 107.99Z" fill="white"/>
<path fill-rule="evenodd" clip-rule="evenodd" d="M58.1584 107.931H55.8953L55.3524 107.608L55.0407 107.425L54.2021 107.931H51.9337L54.2827 106.425H55.8147L56.32 106.753L58.1584 107.931Z" fill="white"/>
<path fill-rule="evenodd" clip-rule="evenodd" d="M114.487 108.765C114.487 109.021 114.411 109.272 114.269 109.485C114.127 109.698 113.924 109.864 113.688 109.963C113.451 110.061 113.191 110.086 112.939 110.036C112.688 109.986 112.457 109.863 112.276 109.681C112.095 109.5 111.971 109.269 111.921 109.018C111.871 108.766 111.897 108.506 111.995 108.269C112.093 108.032 112.259 107.829 112.472 107.687C112.685 107.544 112.936 107.468 113.192 107.468C113.362 107.468 113.531 107.501 113.689 107.566C113.846 107.63 113.989 107.726 114.11 107.846C114.23 107.967 114.325 108.11 114.39 108.268C114.455 108.425 114.488 108.594 114.487 108.765Z" fill="white"/>
<path fill-rule="evenodd" clip-rule="evenodd" d="M132.855 103.875L132.748 104.058C125.866 101.86 118.851 100.104 111.746 98.8021C109.015 98.2964 106.254 97.8571 103.462 97.4841C102.102 97.3012 100.742 97.1291 99.3771 96.9838C97.5495 96.7794 95.7111 96.6073 93.8673 96.4459C89.2086 96.0872 84.5015 95.9079 79.7461 95.9079C74.9906 95.9079 70.271 96.0872 65.5872 96.4459C63.7865 96.5857 62.0018 96.7579 60.2118 96.9515C58.8895 97.095 57.5743 97.2564 56.2663 97.4357C53.4675 97.7943 50.6973 98.2301 47.9559 98.7429C40.7735 100.05 33.6829 101.82 26.7283 104.042L26.6208 103.859C35.0911 99.9537 43.9658 96.9951 53.084 95.0365C56.2519 94.3587 59.4575 93.801 62.7006 93.3635C73.9939 91.8465 85.4391 91.8465 96.7324 93.3635C100.062 93.8082 103.35 94.3838 106.596 95.0903C115.64 97.046 124.442 99.9882 132.844 103.864" fill="#218341"/>
<path fill-rule="evenodd" clip-rule="evenodd" d="M101.909 121.471C101.734 120.871 101.636 120.251 101.619 119.626C101.622 118.471 101.199 117.357 100.431 116.495C100.232 116.321 100.009 116.176 99.7695 116.065C99.9233 115.985 100.071 115.893 100.21 115.79C100.918 115.281 101.409 114.525 101.586 113.671C101.693 113.236 101.743 112.79 101.737 112.342C101.738 111.758 101.607 111.18 101.355 110.653C101.074 110.065 100.632 109.569 100.081 109.222C99.7201 109.004 99.3262 108.846 98.9148 108.754C98.0125 108.56 97.0907 108.472 96.168 108.49H89.6476V121.869H92.9642V117.028H94.8564C95.2831 117.02 95.7097 117.052 96.1304 117.124C96.412 117.166 96.6818 117.265 96.9226 117.417C97.1633 117.569 97.3695 117.77 97.528 118.007C97.662 118.22 97.7635 118.452 97.829 118.695C97.9247 119.058 97.9859 119.429 98.0118 119.803C98.0556 120.437 98.1545 121.065 98.3074 121.681L98.3719 121.885H102.065L101.909 121.471ZM97.6516 113.94C97.2838 114.117 96.8761 114.195 96.469 114.166H92.9481V111.39H96.469C96.6195 111.39 96.8292 111.39 97.0066 111.39C97.14 111.399 97.2718 111.424 97.399 111.465C97.6383 111.557 97.8394 111.727 97.9693 111.948C98.0993 112.169 98.1502 112.427 98.1139 112.681C98.1192 112.758 98.1192 112.835 98.1139 112.912C98.1153 113.105 98.0735 113.295 97.9916 113.469C97.9098 113.643 97.7899 113.797 97.6408 113.918L97.6516 113.94ZM77.2143 108.496V111.368H81.2942V121.874H84.6055V111.363H88.8305V108.49L77.2143 108.496ZM115.154 111.874C114.963 111.357 114.693 110.872 114.353 110.438L114.321 110.395C114.024 110.601 113.677 110.723 113.317 110.747C112.956 110.771 112.596 110.696 112.275 110.529C111.954 110.363 111.685 110.113 111.496 109.805C111.307 109.496 111.206 109.142 111.203 108.781C111.2 108.736 111.2 108.691 111.203 108.646C110.536 108.5 109.854 108.427 109.171 108.431C108.999 108.431 108.822 108.431 108.634 108.431C107.664 108.448 106.704 108.63 105.795 108.969C105.287 109.172 104.816 109.455 104.398 109.808C102.85 111.132 102.479 113.31 102.479 115.242C102.476 115.276 102.476 115.31 102.479 115.344C102.467 116.311 102.619 117.273 102.93 118.19C103.337 119.447 104.221 120.494 105.392 121.105L105.682 121.245C106.819 121.729 108.044 121.967 109.279 121.944C110.505 121.985 111.723 121.724 112.826 121.186C113.776 120.671 114.532 119.858 114.977 118.873C115.186 118.426 115.345 117.957 115.45 117.474C115.529 117.119 115.584 116.76 115.616 116.398C115.653 116.041 115.671 115.682 115.67 115.322C115.7 114.153 115.518 112.989 115.132 111.885L115.154 111.874ZM112.122 115.129C112.173 116.105 111.988 117.079 111.585 117.969C111.335 118.383 110.973 118.719 110.542 118.937C110.11 119.155 109.626 119.246 109.144 119.201C108.716 119.239 108.284 119.176 107.884 119.016C107.484 118.856 107.128 118.604 106.844 118.281C106.215 117.458 106.096 116.156 106.096 115.156C106.096 114.273 106.177 113.004 106.688 112.256C106.879 111.972 107.128 111.732 107.419 111.552C107.71 111.372 108.036 111.256 108.376 111.212C108.614 111.176 108.855 111.158 109.096 111.159C110.069 111.159 110.999 111.411 111.526 112.278C111.894 112.959 112.094 113.719 112.111 114.494C112.111 114.709 112.111 114.924 112.111 115.129H112.122ZM117.035 121.869H120.347V108.49H117.035V121.869Z" fill="white"/>
<path fill-rule="evenodd" clip-rule="evenodd" d="M45.5746 118.996C44.9942 119.01 44.4136 118.978 43.8383 118.9C43.5179 118.862 43.2144 118.735 42.9621 118.534C42.7838 118.378 42.6564 118.172 42.5966 117.942C42.5748 117.874 42.5586 117.803 42.5482 117.732C42.4632 117.146 42.4236 116.555 42.4299 115.962V108.49H39.1187V115.962C39.0849 116.89 39.1625 117.818 39.3498 118.727C39.5202 119.399 39.8567 120.017 40.3281 120.524L40.5109 120.696C41.0049 121.141 41.5986 121.46 42.2418 121.627C43.2459 121.832 44.2712 121.913 45.295 121.869H48.4827V118.996H45.5746ZM61.4213 112.961C61.3401 112.595 61.2323 112.235 61.0988 111.885C60.8509 111.203 60.4585 110.583 59.9484 110.067C59.5425 109.664 59.0672 109.337 58.5454 109.104C57.4638 108.635 56.2944 108.404 55.1159 108.426H54.4225C52.9541 108.435 51.5282 108.92 50.3587 109.808C49.2995 110.804 48.6513 112.161 48.5418 113.612C48.4715 114.147 48.4374 114.686 48.4396 115.225C48.4232 116.227 48.5796 117.225 48.9019 118.173C49.3029 119.432 50.1863 120.481 51.3585 121.089C51.9314 121.375 52.5383 121.586 53.1646 121.718C53.3646 121.283 53.7162 120.935 54.1537 120.739C54.4076 120.62 54.685 120.559 54.9654 120.562C55.2556 120.56 55.5425 120.624 55.804 120.75C56.2648 120.966 56.6249 121.351 56.8092 121.826C57.5037 121.728 58.1764 121.511 58.7981 121.186C59.7496 120.673 60.5053 119.859 60.9482 118.873C61.4396 117.749 61.6781 116.532 61.6471 115.306C61.6499 114.518 61.5688 113.732 61.4052 112.961H61.4213ZM55.0622 119.201H54.9815C54.569 119.229 54.1556 119.162 53.7733 119.004C53.3911 118.847 53.0504 118.603 52.7776 118.292C52.1541 117.469 52.0358 116.14 52.0358 115.166C52.0358 114.284 52.1164 113.015 52.6217 112.261C52.8969 111.89 53.2631 111.596 53.6849 111.408C54.1067 111.219 54.57 111.143 55.0299 111.186C56.0029 111.186 56.9328 111.438 57.465 112.304C57.721 112.751 57.8889 113.242 57.9595 113.751C58.0344 114.216 58.0703 114.685 58.067 115.156C58.12 116.132 57.9355 117.107 57.5295 117.996C56.9919 118.927 56.1157 119.228 55.089 119.228L55.0622 119.201ZM67.4525 111.632C67.9409 111.46 68.4562 111.378 68.9737 111.39H73.2741V108.517H68.3018C67.3549 108.516 66.4148 108.678 65.5227 108.996C64.6008 109.361 63.827 110.024 63.3242 110.879C62.5798 112.207 62.217 113.715 62.276 115.236C62.2392 116.51 62.4718 117.776 62.9587 118.953C63.3369 119.842 63.9786 120.593 64.7971 121.105C65.3249 121.424 65.9057 121.644 66.5118 121.756H66.6032C67.2366 121.849 67.8768 121.889 68.5168 121.874H73.2741V119.002H69.0598C68.6408 119.007 68.2225 118.965 67.8127 118.878C67.4675 118.81 67.1422 118.665 66.8612 118.453C66.3875 117.987 66.0894 117.371 66.0173 116.71C65.9169 116.131 65.8702 115.544 65.8775 114.956C65.8775 114.16 65.9474 112.88 66.5011 112.267C66.7566 111.983 67.0778 111.767 67.4364 111.637" fill="white"/>
<path fill-rule="evenodd" clip-rule="evenodd" d="M56.3146 122.595C56.3146 122.769 56.2804 122.941 56.2139 123.101C56.1474 123.261 56.0499 123.407 55.927 123.529C55.8041 123.652 55.6583 123.749 55.4979 123.814C55.3375 123.88 55.1657 123.914 54.9923 123.913C54.6434 123.912 54.3093 123.773 54.0626 123.526C53.8159 123.279 53.6767 122.944 53.6753 122.595C53.6755 122.415 53.7128 122.236 53.7849 122.07C53.8571 121.905 53.9625 121.756 54.0946 121.632C54.3369 121.403 54.6585 121.276 54.9923 121.277C55.1384 121.278 55.2835 121.301 55.4223 121.347C55.6826 121.436 55.9087 121.604 56.0687 121.828C56.2287 122.052 56.3147 122.32 56.3146 122.595Z" fill="white"/>
</g>
<defs>
<linearGradient id="paint0_linear_215_4155" x1="49.92" y1="137.039" x2="93.0108" y2="-74.8372" gradientUnits="userSpaceOnUse">
<stop stop-color="#094323"/>
<stop offset="1" stop-color="#178743"/>
</linearGradient>
<clipPath id="clip0_215_4155">
<rect width="115.455" height="101.818" fill="white" transform="translate(22 22)"/>
</clipPath>
</defs>
</svg>
